<svg width="28" height="27" viewBox="0 0 28 27" fill="none" xmlns="http://www.w3.org/2000/svg">
<path d="M25.7018 21.7978L24.1464 8.29778C24.111 7.98811 23.9583 7.70193 23.7175 7.49415C23.4768 7.28637 23.165 7.17162 22.8419 7.17191H18.7917C18.6826 6.01914 18.1306 4.94732 17.2441 4.16687C16.3575 3.38643 15.2004 2.95374 14 2.95374C12.7996 2.95374 11.6425 3.38643 10.7559 4.16687C9.86937 4.94732 9.31736 6.01914 9.20828 7.17191H5.15812C4.83503 7.17162 4.5232 7.28637 4.28246 7.49415C4.04171 7.70193 3.889 7.98811 3.85361 8.29778L2.29819 21.7978C2.27781 21.9747 2.29635 22.1537 2.35261 22.3233C2.40886 22.4928 2.50157 22.649 2.62466 22.7816C2.74776 22.9142 2.89849 23.0203 3.067 23.0929C3.23551 23.1656 3.41801 23.2031 3.60259 23.2032H24.3973C24.5819 23.2032 24.7644 23.1656 24.9329 23.093C25.1014 23.0203 25.2522 22.9143 25.3753 22.7816C25.4984 22.649 25.5911 22.4928 25.6474 22.3233C25.7036 22.1538 25.7222 21.9747 25.7018 21.7978ZM14 3.79691C14.9681 3.79815 15.9019 4.14281 16.6235 4.76522C17.345 5.38763 17.8038 6.24427 17.9126 7.17191H10.0874C10.1961 6.24427 10.655 5.38763 11.3765 4.76522C12.0981 4.14281 13.0319 3.79815 14 3.79691ZM24.7233 22.2189C24.6825 22.2634 24.6323 22.2989 24.5761 22.3231C24.5199 22.3474 24.459 22.3597 24.3974 22.3594H3.60259C3.54107 22.3594 3.48023 22.3469 3.42406 22.3227C3.3679 22.2984 3.31766 22.2631 3.27663 22.2189C3.2356 22.1746 3.2047 22.1226 3.18595 22.0661C3.1672 22.0096 3.16103 21.9499 3.16783 21.8909L4.72336 8.39091C4.73516 8.2877 4.78606 8.19233 4.86629 8.12308C4.94653 8.05383 5.05044 8.01558 5.15812 8.01566H22.8419C22.9496 8.01558 23.0535 8.05383 23.1337 8.12308C23.2139 8.19233 23.2648 8.2877 23.2766 8.39091L24.8322 21.8909C24.8393 21.9499 24.8333 22.0097 24.8145 22.0663C24.7958 22.1228 24.7647 22.1749 24.7233 22.2189Z" fill="black"/>
</svg>
