<svg width="16" height="16" viewBox="0 0 16 16" fill="none" xmlns="http://www.w3.org/2000/svg">
<path d="M15.8125 8.00001C15.8125 6.45487 15.3543 4.94444 14.4959 3.6597C13.6375 2.37496 12.4174 1.37361 10.9899 0.782277C9.56242 0.190942 7.99163 0.0361783 6.47618 0.337556C4.96072 0.638933 3.56867 1.38292 2.47604 2.47543C1.3834 3.56794 0.639267 4.95991 0.337723 6.47533C0.0361792 7.99076 0.19077 9.56156 0.781948 10.9891C1.37313 12.4167 2.37434 13.6369 3.65899 14.4954C4.94363 15.354 6.45401 15.8123 7.99915 15.8125L8 15.8126L8.00086 15.8125C10.072 15.8099 12.0576 14.986 13.522 13.5214C14.9864 12.0568 15.8102 10.0711 15.8125 8.00001ZM8.3125 15.1803V9.56251H10.5C10.5829 9.56251 10.6624 9.52958 10.721 9.47098C10.7796 9.41237 10.8125 9.33289 10.8125 9.25001C10.8125 9.16712 10.7796 9.08764 10.721 9.02903C10.6624 8.97043 10.5829 8.93751 10.5 8.93751H8.3125V6.75C8.31296 6.33574 8.47773 5.93858 8.77065 5.64565C9.06358 5.35273 9.46074 5.18796 9.875 5.1875H11.125C11.2079 5.1875 11.2874 5.15458 11.346 5.09598C11.4046 5.03737 11.4375 4.95788 11.4375 4.875C11.4375 4.79212 11.4046 4.71264 11.346 4.65403C11.2874 4.59543 11.2079 4.5625 11.125 4.5625H9.875C9.29504 4.56315 8.73901 4.79382 8.32892 5.20392C7.91882 5.61401 7.68815 6.17004 7.6875 6.75V8.93751H5.5C5.41712 8.93751 5.33764 8.97043 5.27903 9.02903C5.22043 9.08764 5.1875 9.16712 5.1875 9.25001C5.1875 9.33289 5.22043 9.41237 5.27903 9.47098C5.33764 9.52958 5.41712 9.56251 5.5 9.56251H7.6875V15.1802C5.8101 15.0985 4.03936 14.2848 2.75463 12.9134C1.46989 11.542 0.773342 9.72198 0.814203 7.84325C0.855064 5.96452 1.63008 4.1765 2.97323 2.86225C4.31638 1.54799 6.12083 0.812035 8 0.812035C9.87918 0.812035 11.6836 1.54799 13.0268 2.86225C14.3699 4.1765 15.1449 5.96452 15.1858 7.84325C15.2267 9.72198 14.5301 11.542 13.2454 12.9134C11.9606 14.2848 10.1899 15.0985 8.3125 15.1802V15.1803Z" fill="white"/>
</svg>
