<svg width="16" height="16" viewBox="0 0 16 16" fill="none" xmlns="http://www.w3.org/2000/svg">
<path d="M8 4.5625C7.32013 4.5625 6.65552 4.76411 6.09023 5.14182C5.52493 5.51954 5.08434 6.0564 4.82416 6.68453C4.56399 7.31265 4.49591 8.00381 4.62855 8.67062C4.76119 9.33743 5.08858 9.94994 5.56932 10.4307C6.05006 10.9114 6.66257 11.2388 7.32938 11.3714C7.99619 11.5041 8.68735 11.436 9.31547 11.1758C9.9436 10.9157 10.4805 10.4751 10.8582 9.90977C11.2359 9.34448 11.4375 8.67987 11.4375 8C11.4365 7.08864 11.074 6.21489 10.4295 5.57046C9.78511 4.92603 8.91136 4.56353 8 4.5625ZM8 10.8125C7.44374 10.8125 6.89997 10.6475 6.43746 10.3385C5.97495 10.0295 5.61446 9.59021 5.40159 9.0763C5.18872 8.56238 5.13302 7.99688 5.24154 7.45131C5.35006 6.90574 5.61793 6.4046 6.01126 6.01126C6.4046 5.61793 6.90574 5.35006 7.45131 5.24154C7.99688 5.13302 8.56238 5.18872 9.0763 5.40159C9.59021 5.61446 10.0295 5.97495 10.3385 6.43746C10.6475 6.89997 10.8125 7.44374 10.8125 8C10.8117 8.74567 10.5151 9.46056 9.98782 9.98782C9.46056 10.5151 8.74567 10.8117 8 10.8125ZM11.4375 0.5H4.5625C3.48543 0.50122 2.45283 0.929624 1.69123 1.69123C0.929624 2.45283 0.50122 3.48543 0.5 4.5625V11.4375C0.50122 12.5146 0.929624 13.5472 1.69123 14.3088C2.45283 15.0704 3.48543 15.4988 4.5625 15.5H11.4375C12.5146 15.4988 13.5472 15.0704 14.3088 14.3088C15.0704 13.5472 15.4988 12.5146 15.5 11.4375V4.5625C15.4988 3.48543 15.0704 2.45283 14.3088 1.69123C13.5472 0.929624 12.5146 0.50122 11.4375 0.5ZM14.875 11.4375C14.874 12.3489 14.5115 13.2226 13.867 13.867C13.2226 14.5115 12.3489 14.874 11.4375 14.875H4.5625C3.65114 14.874 2.77739 14.5115 2.13296 13.867C1.48853 13.2226 1.12603 12.3489 1.125 11.4375V4.5625C1.12603 3.65114 1.48853 2.77739 2.13296 2.13296C2.77739 1.48853 3.65114 1.12603 4.5625 1.125H11.4375C12.3489 1.12603 13.2226 1.48853 13.867 2.13296C14.5115 2.77739 14.874 3.65114 14.875 4.5625V11.4375ZM12.6875 3.9375C12.6875 4.06111 12.6508 4.18195 12.5822 4.28473C12.5135 4.38751 12.4159 4.46762 12.3017 4.51493C12.1875 4.56223 12.0618 4.57461 11.9406 4.55049C11.8193 4.52638 11.708 4.46685 11.6206 4.37944C11.5331 4.29203 11.4736 4.18067 11.4495 4.05943C11.4254 3.93819 11.4378 3.81253 11.4851 3.69832C11.5324 3.58412 11.6125 3.48651 11.7153 3.41783C11.818 3.34916 11.9389 3.3125 12.0625 3.3125C12.2282 3.31271 12.387 3.37862 12.5042 3.49579C12.6214 3.61295 12.6873 3.7718 12.6875 3.9375Z" fill="white"/>
</svg>
