<svg width="14" height="16" viewBox="0 0 14 16" fill="none" xmlns="http://www.w3.org/2000/svg">
<path d="M13.5625 6.75002C13.5625 8.43189 12.9766 9.96744 11.9127 11.0735C10.9263 12.0992 9.59127 12.6875 8.25002 12.6875C6.58197 12.6875 5.63111 12.0031 5.144 11.4711L4.17916 15.5716C4.1701 15.6119 4.15315 15.65 4.12928 15.6837C4.1054 15.7174 4.07509 15.746 4.04008 15.7679C4.00507 15.7899 3.96607 15.8046 3.92532 15.8114C3.88458 15.8181 3.8429 15.8167 3.80269 15.8073C3.76249 15.7978 3.72456 15.7805 3.6911 15.7563C3.65763 15.732 3.6293 15.7014 3.60774 15.6662C3.58617 15.631 3.57181 15.5918 3.56547 15.551C3.55912 15.5102 3.56094 15.4686 3.5708 15.4285L6.0708 4.80345C6.08019 4.7635 6.09737 4.7258 6.12134 4.69248C6.14531 4.65917 6.17561 4.6309 6.2105 4.6093C6.28098 4.56567 6.36589 4.55182 6.44658 4.5708C6.48653 4.5802 6.52424 4.59737 6.55755 4.62134C6.59086 4.64531 6.61913 4.67561 6.64073 4.7105C6.66234 4.7454 6.67686 4.78421 6.68346 4.82471C6.69007 4.86522 6.68863 4.90663 6.67923 4.94658L5.32884 10.6855C5.51658 11.0014 6.29259 12.0625 8.25002 12.0625C10.5542 12.0625 12.9375 10.0753 12.9375 6.75002C12.9373 5.82258 12.7199 4.90808 12.3026 4.07982C11.8854 3.25155 11.2799 2.53255 10.5347 1.98043C9.78949 1.42832 8.92532 1.05845 8.01144 0.900464C7.09756 0.742479 6.15938 0.800774 5.27208 1.07068C4.38479 1.34058 3.57306 1.81459 2.90195 2.4547C2.23084 3.09482 1.71901 3.88325 1.40749 4.7568C1.09597 5.63035 0.993413 6.56473 1.10804 7.48506C1.22267 8.40538 1.5513 9.28606 2.06759 10.0565C2.11259 10.1253 2.12866 10.2091 2.11232 10.2896C2.09599 10.3702 2.04856 10.4411 1.98032 10.4869C1.91209 10.5328 1.82853 10.5499 1.74777 10.5346C1.667 10.5192 1.59553 10.4727 1.54884 10.405C0.977869 9.55348 0.614338 8.58003 0.487393 7.56268C0.360448 6.54532 0.47362 5.51238 0.817837 4.54665C1.16205 3.58092 1.72774 2.70927 2.46955 2.00157C3.21136 1.29387 4.10865 0.769814 5.0895 0.471403C6.07035 0.172992 7.10748 0.108532 8.11773 0.28319C9.12798 0.457847 10.0833 0.866765 10.907 1.47716C11.7307 2.08756 12.4 2.88245 12.8611 3.79813C13.3223 4.7138 13.5625 5.72478 13.5625 6.75002Z" fill="white"/>
</svg>
