<svg width="25" height="26" viewBox="0 0 25 26" fill="none" xmlns="http://www.w3.org/2000/svg">
<path d="M11.5 18.7549C7.9 18.7549 5 15.8549 5 12.2549C5 8.65488 7.9 5.75488 11.5 5.75488C15.1 5.75488 18 8.65488 18 12.2549C18 15.8549 15.1 18.7549 11.5 18.7549ZM11.5 6.75488C8.45 6.75488 6 9.20488 6 12.2549C6 15.3049 8.45 17.7549 11.5 17.7549C14.55 17.7549 17 15.3049 17 12.2549C17 9.20488 14.55 6.75488 11.5 6.75488Z" fill="#001A28"/>
<path d="M16.341 16.3884L20.831 20.8784L20.124 21.5854L15.634 17.0954L16.341 16.3884Z" fill="#001A28"/>
</svg>
